<svg width="13" height="12" viewBox="0 0 13 12" fill="none" xmlns="http://www.w3.org/2000/svg">
<path d="M6.18732 3.4541C6.18732 4.76986 5.85838 6.1346 5.2005 7.54834C4.54262 8.94808 3.64679 10.1099 2.513 11.0337L0.287415 9.52197C0.95929 8.58415 1.4632 7.62533 1.79913 6.64551C2.13507 5.66569 2.30304 4.61589 2.30304 3.49609V0.766602H6.18732V3.4541ZM12.6541 3.4541C12.6541 4.76986 12.3252 6.1346 11.6673 7.54834C11.0094 8.94808 10.1136 10.1099 8.9798 11.0337L6.75421 9.52197C7.42609 8.58415 7.92999 7.62533 8.26593 6.64551C8.60187 5.66569 8.76984 4.61589 8.76984 3.49609V0.766602H12.6541V3.4541Z" fill="white"/>
</svg>
