<svg width="33" height="33" viewBox="0 0 33 33" fill="none" xmlns="http://www.w3.org/2000/svg">
<path d="M29.5578 1.10686L16.4999 14.1647L3.44204 1.10686C3.12798 0.819465 2.71514 0.664323 2.28953 0.673753C1.86393 0.683184 1.45837 0.856459 1.15735 1.15748C0.856324 1.45851 0.683048 1.86406 0.673618 2.28967C0.664188 2.71528 0.819329 3.12811 1.10672 3.44217L14.158 16.5L1.10341 29.5546C0.943923 29.7066 0.816428 29.8889 0.728423 30.0909C0.640417 30.2929 0.593675 30.5104 0.590947 30.7307C0.588219 30.951 0.629558 31.1696 0.712535 31.3737C0.795512 31.5778 0.918451 31.7633 1.07413 31.9192C1.2298 32.0751 1.41507 32.1983 1.61905 32.2815C1.82302 32.3648 2.04158 32.4065 2.26189 32.404C2.48219 32.4016 2.69978 32.3552 2.90188 32.2675C3.10398 32.1797 3.28651 32.0525 3.43873 31.8932L16.4999 18.8387L29.5578 31.8965C29.8719 32.1839 30.2847 32.3391 30.7103 32.3297C31.1359 32.3202 31.5415 32.147 31.8425 31.8459C32.1435 31.5449 32.3168 31.1393 32.3262 30.7137C32.3356 30.2881 32.1805 29.8753 31.8931 29.5612L18.8352 16.5034L31.8931 3.44217C32.0526 3.29018 32.1801 3.10784 32.2681 2.90586C32.3561 2.70389 32.4029 2.48636 32.4056 2.26606C32.4083 2.04576 32.367 1.82714 32.284 1.62305C32.201 1.41896 32.0781 1.23351 31.9224 1.07761C31.7667 0.921717 31.5815 0.798515 31.3775 0.715249C31.1735 0.631983 30.9549 0.590335 30.7346 0.592751C30.5143 0.595167 30.2967 0.641599 30.0946 0.729319C29.8925 0.817038 29.71 0.944274 29.5578 1.10355V1.10686Z" fill="#5454D4"/>
</svg>
