<svg width="19" height="16" viewBox="0 0 19 16" fill="none" xmlns="http://www.w3.org/2000/svg">
<g clip-path="url(#clip0)">
<rect x="-2.89612" y="0.171875" width="22.6876" height="19.1234" rx="4.45568" transform="rotate(-7.96028 -2.89612 0.171875)" fill="url(#paint0_angular)"/>
<rect x="-2.89612" y="0.171875" width="22.6876" height="19.1234" rx="4.45568" transform="rotate(-7.96028 -2.89612 0.171875)" fill="url(#paint1_radial)"/>
<path d="M9.59503 12.5227L6.0989 3.46997H4.01703L0.542297 12.5227H2.69709L3.48589 10.3371H6.59843L7.38723 12.5227H9.59503ZM5.0428 5.9351L6.0167 8.70762H4.02113L5.0428 5.9351Z" fill="white"/>
<path d="M12.9492 3.46997H9.2505V12.5227H12.9492C15.5486 12.5227 17.4368 10.7251 17.4368 7.99634C17.4368 5.26758 15.5486 3.46997 12.9492 3.46997ZM11.3281 10.6901V5.14471H12.8199C14.5011 5.14471 15.2563 6.31512 15.2563 7.99634C15.2563 9.67756 14.5011 10.6901 12.8199 10.6901H11.3281Z" fill="white"/>
</g>
<defs>
<radialGradient id="paint0_angular" cx="0" cy="0" r="1" gradientUnits="userSpaceOnUse" gradientTransform="translate(8.44766 9.73357) rotate(88.3292) scale(14.7975 17.5554)">
<stop offset="0.068817" stop-color="#A400A6"/>
<stop offset="0.2375" stop-color="#6D00EE"/>
<stop offset="0.410002" stop-color="#008AF0"/>
<stop offset="0.557471" stop-color="#A400A6"/>
<stop offset="0.772291" stop-color="#017DF1"/>
<stop offset="0.951337" stop-color="#A400A6"/>
</radialGradient>
<radialGradient id="paint1_radial" cx="0" cy="0" r="1" gradientUnits="userSpaceOnUse" gradientTransform="translate(16.9805 1.77599) rotate(141.374) scale(23.0432 27.338)">
<stop stop-color="#00F5F2"/>
<stop offset="1" stop-color="#9400BC" stop-opacity="0"/>
</radialGradient>
<clipPath id="clip0">
<rect width="18.2001" height="16" fill="white"/>
</clipPath>
</defs>
</svg>
