<svg width="13" height="11" viewBox="0 0 13 11" fill="none" xmlns="http://www.w3.org/2000/svg">
<path d="M0.20459 7.90967C0.20459 6.59391 0.533529 5.23617 1.19141 3.83643C1.84928 2.42269 2.75212 1.25391 3.8999 0.330078L6.12549 1.8418C5.43962 2.79362 4.92871 3.75944 4.59277 4.73926C4.25684 5.70508 4.08887 6.74089 4.08887 7.84668V10.4502H0.20459V7.90967ZM6.83936 7.90967C6.83936 6.59391 7.16829 5.23617 7.82617 3.83643C8.48405 2.42269 9.38688 1.25391 10.5347 0.330078L12.7603 1.8418C12.0744 2.79362 11.5635 3.75944 11.2275 4.73926C10.8916 5.70508 10.7236 6.74089 10.7236 7.84668V10.4502H6.83936V7.90967Z" fill="white"/>
</svg>
